<svg xmlns="http://www.w3.org/2000/svg" xmlns:xlink="http://www.w3.org/1999/xlink" viewBox="0 0 596.22 818.44"><defs><style>.cls-1{fill:url(#linear-gradient);}.cls-2{fill:url(#linear-gradient-2);}.cls-3{fill:url(#linear-gradient-3);}.cls-4{fill:url(#linear-gradient-4);}.cls-5{fill:url(#linear-gradient-5);}.cls-6{fill:url(#linear-gradient-6);}.cls-7{fill:url(#linear-gradient-7);}.cls-8{fill:url(#linear-gradient-8);}.cls-9{fill:url(#linear-gradient-9);}.cls-10{font-size:53.77px;fill:#fcfcfc;font-family:Poppins-Light, Poppins;font-weight:300;letter-spacing:0.06em;}.cls-11{fill:url(#linear-gradient-10);}.cls-12{fill:url(#linear-gradient-11);}.cls-13{fill:url(#linear-gradient-12);}.cls-14{fill:url(#linear-gradient-13);}</style><linearGradient id="linear-gradient" x1="100.28" y1="770.1" x2="722.51" y2="925.85" gradientUnits="userSpaceOnUse"><stop offset="0" stop-color="#fff"/><stop offset="0.02" stop-color="#f9f9f9"/><stop offset="0.22" stop-color="#afafaf"/><stop offset="0.42" stop-color="#717171"/><stop offset="0.6" stop-color="#414141"/><stop offset="0.75" stop-color="#1f1f1f"/><stop offset="0.88" stop-color="#0a0a0a"/><stop offset="0.96" stop-color="#020202"/></linearGradient><linearGradient id="linear-gradient-2" x1="106.75" y1="744.29" x2="728.97" y2="900.03" gradientUnits="userSpaceOnUse"><stop offset="0" stop-color="#fff"/><stop offset="0.96" stop-color="#292928"/></linearGradient><linearGradient id="linear-gradient-3" x1="111.13" y1="726.79" x2="733.35" y2="882.54" xlink:href="#linear-gradient-2"/><linearGradient id="linear-gradient-4" x1="115.27" y1="710.23" x2="737.5" y2="865.97" xlink:href="#linear-gradient-2"/><linearGradient id="linear-gradient-5" x1="119.42" y1="693.65" x2="741.65" y2="849.39" xlink:href="#linear-gradient-2"/><linearGradient id="linear-gradient-6" x1="123.72" y1="676.46" x2="745.95" y2="832.21" xlink:href="#linear-gradient-2"/><linearGradient id="linear-gradient-7" x1="126.82" y1="664.1" x2="749.04" y2="819.84" xlink:href="#linear-gradient-2"/><linearGradient id="linear-gradient-8" x1="46.99" y1="830.26" x2="66.82" y2="670.37" gradientUnits="userSpaceOnUse"><stop offset="0" stop-color="#e68d02"/><stop offset="0.05" stop-color="#e18d0a"/><stop offset="0.12" stop-color="#d38d1f"/><stop offset="0.21" stop-color="#bc8c42"/><stop offset="0.31" stop-color="#9c8c72"/><stop offset="0.42" stop-color="#738baf"/><stop offset="0.46" stop-color="#638bc7"/><stop offset="0.59" stop-color="#6588c5"/><stop offset="0.7" stop-color="#6b7ebe"/><stop offset="0.79" stop-color="#766db2"/><stop offset="0.88" stop-color="#8556a1"/><stop offset="0.93" stop-color="#904695"/></linearGradient><linearGradient id="linear-gradient-9" x1="55.17" y1="828.99" x2="74.54" y2="672.79" xlink:href="#linear-gradient-8"/><linearGradient id="linear-gradient-10" x1="23.72" y1="812.97" x2="1.58" y2="689.24" xlink:href="#linear-gradient-8"/><linearGradient id="linear-gradient-11" x1="202.59" y1="136.51" x2="219.75" y2="540.24" gradientUnits="userSpaceOnUse"><stop offset="0.01" stop-color="#6e6e6e"/><stop offset="1" stop-color="#191919"/></linearGradient><linearGradient id="linear-gradient-12" x1="178.51" y1="287.67" x2="455.44" y2="287.67" gradientUnits="userSpaceOnUse"><stop offset="0.07" stop-color="#575756"/><stop offset="0.19" stop-color="#666"/><stop offset="0.38" stop-color="#767676"/><stop offset="0.59" stop-color="gray"/><stop offset="0.85" stop-color="#838383"/></linearGradient><linearGradient id="linear-gradient-13" x1="225.87" y1="574.13" x2="171.63" y2="112.03" xlink:href="#linear-gradient-8"/></defs><g id="Layer_2" data-name="Layer 2"><g id="Layer_4" data-name="Layer 4"><g id="Layer_5" data-name="Layer 5"><path class="cls-1" d="M136.14,818.44c-21.78,0-39.52-16.31-39.52-39.41s17.74-39.3,39.52-39.3,39.3,16.2,39.3,39.3S157.92,818.44,136.14,818.44Zm0-17.08c12.26,0,20.25-8.87,20.25-22.33,0-13.68-8-22.33-20.25-22.33-12.48,0-20.36,8.65-20.36,22.33C115.78,792.49,123.66,801.36,136.14,801.36Z"/><path class="cls-2" d="M181.79,740.82h20l11.06,55.94,13.68-55.94h20.58l13.13,55.94,11.17-55.94h20.14l-20,76.85H248.89L236.63,767.1l-12.7,50.57H201.27Z"/><path class="cls-3" d="M348.83,804.1H320.15l-4.6,13.57H296l27.8-76.85h21.68l27.8,76.85H353.43Zm-14.34-42.59-9.41,28.14H344Z"/><path class="cls-4" d="M400.39,740.82v62.4h24.52v14.45H381.67V740.82Z"/><path class="cls-5" d="M461.69,818.44c-16.53,0-29.45-8.21-30-23.76h19.93c.54,5.91,4.27,8.76,9.52,8.76,5.47,0,9-2.74,9-7.22,0-14.23-38.43-6.57-38.21-33.83,0-14.56,11.93-22.66,28-22.66,16.74,0,28,8.32,28.79,23H468.47c-.32-4.93-3.83-7.88-8.86-8-4.49-.11-7.88,2.19-7.88,7,0,13.36,38,7.34,38,33.06C489.71,807.71,479.64,818.44,461.69,818.44Z"/><path class="cls-6" d="M519.92,783.74v33.93H501.2V740.82h18.72v33.72l25.62-33.72h22l-29.77,37.66,30.87,39.19H545.76Z"/><path class="cls-7" d="M577.5,740.82h18.72v76.85H577.5Z"/></g><polygon class="cls-8" points="69.69 685.21 89.72 685.03 51.27 749.74 32.37 748.9 69.69 685.21"/><polygon class="cls-9" points="52.4 747.81 32.37 747.62 70.82 816.58 89.72 815.69 52.4 747.81"/><text class="cls-10" transform="translate(3.78 671.86)">Project</text><path class="cls-11" d="M22.27,685.73c-2.62-.37-5.93,2.31-7.87,3.82a30.15,30.15,0,0,0-6.66,7.23,29.58,29.58,0,0,0-5,18.41c.93,11.95,8.9,22.07,12.8,33.41,4.94,14.4,3.08,30.33-1.26,44.93-2.65,8.9-6.6,18-14.28,23.26,8.87,0,17.38-4.49,23.45-11s9.91-14.77,12.3-23.32c3.13-11.23,3.87-23.38.35-34.5-2.54-8-7.14-15.14-11.7-22.13s-11.08-14.8-8.63-23.57"/><path class="cls-12" d="M295,356.27q-.78-8-2.35-15.82c-5.59-27.92-18.7-53.64-34.68-77-17.51-25.56-35.82-47.95-58.43-69.2-29.36-27.6-41.14-61.73-44.1-101.46.19,2.52-6,10.17-7.17,12.57q-2,4.34-3.72,8.84c0,.46,0,.92,0,1.37.09-.29.17-.57.25-.84,4.54,28.42,15,59,37,79.56,22.65,21.22,41,43.58,58.54,69.11,16,23.32,29.16,49,34.79,76.93q1.58,7.85,2.38,15.82c4.18,42-10.2,82.38-33.59,116.8s-56.55,65.3-92.13,87.21c-1.55,1-3,1.82-4.43,2.67l-.34-.1c-2.93,4.27-5.91,8.48-9.07,12.56,17.5-7.36,22.81-10.17,31-15.22,35.62-21.85,68.86-52.74,92.26-87.06S299.12,398.29,295,356.27Z"/><path class="cls-13" d="M431.76,575.33c-11.12-2-22-5-31.9-11-3.35-2-6.72-4.58-8.06-8.27-1.92-5.28.88-11,3.48-16,42.26-81,48.33-176.39,22.5-263.53-9-30.38-23.2-54.29-40.3-80.72-4.29-6.62-8.45-13.33-12.11-20.32-6.84-13.07-10.83-28.64-6.09-42.6,5.91-17.4,23.85-28,41.68-32.44s36.52-4.2,54.48-8.07c-31.61,4.76-65.32-8.76-84.86-34C360.89,45.78,354.5,30.7,343.3,19.49c-17-17-43.4-22.56-67-17.92A129.3,129.3,0,0,0,225.41,23.7c-22.06,16-38.69,39.07-44.94,66.59-4.42,19.47-1,40.08,6.33,58.66s59.41,72.65,72,88.17c38.28,47.29,36.82,56.16,62.65,107.49,7.54-31.7,6.84-66.95-1.5-98.44s-26.64-60.78-53.15-79.72c-19.71-14.07-44.23-23-57.9-43-15-21.9-12.2-53,3.07-74.71s41-34.46,67.25-38.29c16-2.33,33.35-1.35,46.71,7.74,13.85,9.44,21,25.73,28.28,40.83s16.55,30.89,32.1,37.17c-13.27,6.78-26.76,15.34-33,28.88-5.74,12.52-4.19,27.26,0,40.38,4.79,14.93,15.95,28.76,24.23,41.88,8.47,13.4,17.05,27.57,21.4,43.13,6.7,24,3.74,50.55.19,74.86-3.71,25.36-9.92,47-18.2,74.32a529.92,529.92,0,0,1-26.19,69.83c-4.45,9.54-9.29,18.9-14.62,28-18.16,31-45.67,59.17-76.33,77.87"/><path class="cls-14" d="M243.88,472.94c-23.35,34.35-56.55,65.29-92.13,87.2-1.55,1-3,1.83-4.43,2.67,4.1-6,8.08-12.08,12.22-18.07a417,417,0,0,0,22.19-35.64c13.18-23.86,23.92-49.27,30.14-75.87,4.48-19.15,10.56-36.13,10.65-56.2a154.33,154.33,0,0,0-3.16-31.73c-.13-.68-.28-1.35-.42-2s-.32-1.44-.48-2.16c-.09-.37-.17-.74-.26-1.11-.15-.64-.31-1.28-.47-1.92-.1-.41-.21-.82-.32-1.23-.75-2.89-1.58-5.77-2.49-8.61-8.64-27.1-23.79-47.69-41.09-69.59-25.75-32.58-41.73-75.51-36.29-117.31a56.22,56.22,0,0,1,1.24-6.08c1.71-6.92,4.58-15.79,6-20.55,4.54,28.42,15,59,37,79.56,22.64,21.22,41,43.58,58.53,69.12,16,23.31,29.16,49,34.79,76.93,1.05,5.22,1.86,10.5,2.39,15.81C281.65,398.15,267.28,438.51,243.88,472.94Z"/></g></g></svg>