<svg xmlns="http://www.w3.org/2000/svg" xmlns:xlink="http://www.w3.org/1999/xlink" viewBox="0 0 931.37 300.38"><defs><style>.cls-1{fill:url(#linear-gradient);}.cls-2{fill:url(#linear-gradient-2);}.cls-3{fill:url(#linear-gradient-3);}.cls-4{fill:url(#linear-gradient-4);}.cls-5{fill:url(#linear-gradient-5);}.cls-6{fill:url(#linear-gradient-6);}.cls-7{fill:url(#linear-gradient-7);}.cls-8{fill:url(#linear-gradient-8);}.cls-9{fill:url(#linear-gradient-9);}.cls-10{font-size:84px;fill:#fcfcfc;font-family:Poppins-Light, Poppins;font-weight:300;letter-spacing:0.06em;}.cls-11{fill:url(#linear-gradient-10);}</style><linearGradient id="linear-gradient" x1="156.66" y1="224.87" x2="1128.66" y2="468.17" gradientUnits="userSpaceOnUse"><stop offset="0" stop-color="#fff"/><stop offset="0.02" stop-color="#f9f9f9"/><stop offset="0.22" stop-color="#afafaf"/><stop offset="0.42" stop-color="#717171"/><stop offset="0.6" stop-color="#414141"/><stop offset="0.75" stop-color="#1f1f1f"/><stop offset="0.88" stop-color="#0a0a0a"/><stop offset="0.96" stop-color="#020202"/></linearGradient><linearGradient id="linear-gradient-2" x1="166.75" y1="184.54" x2="1138.75" y2="427.84" gradientUnits="userSpaceOnUse"><stop offset="0" stop-color="#fff"/><stop offset="0.96" stop-color="#292928"/></linearGradient><linearGradient id="linear-gradient-3" x1="173.59" y1="157.21" x2="1145.59" y2="400.51" xlink:href="#linear-gradient-2"/><linearGradient id="linear-gradient-4" x1="180.07" y1="131.33" x2="1152.07" y2="374.63" xlink:href="#linear-gradient-2"/><linearGradient id="linear-gradient-5" x1="186.55" y1="105.44" x2="1158.55" y2="348.73" xlink:href="#linear-gradient-2"/><linearGradient id="linear-gradient-6" x1="193.27" y1="78.59" x2="1165.27" y2="321.89" xlink:href="#linear-gradient-2"/><linearGradient id="linear-gradient-7" x1="198.11" y1="59.28" x2="1170.11" y2="302.57" xlink:href="#linear-gradient-2"/><linearGradient id="linear-gradient-8" x1="73.41" y1="318.84" x2="104.38" y2="69.07" gradientUnits="userSpaceOnUse"><stop offset="0" stop-color="#e68d02"/><stop offset="0.05" stop-color="#e18d0a"/><stop offset="0.12" stop-color="#d38d1f"/><stop offset="0.21" stop-color="#bc8c42"/><stop offset="0.31" stop-color="#9c8c72"/><stop offset="0.42" stop-color="#738baf"/><stop offset="0.46" stop-color="#638bc7"/><stop offset="0.59" stop-color="#6588c5"/><stop offset="0.7" stop-color="#6b7ebe"/><stop offset="0.79" stop-color="#766db2"/><stop offset="0.88" stop-color="#8556a1"/><stop offset="0.93" stop-color="#904695"/></linearGradient><linearGradient id="linear-gradient-9" x1="86.19" y1="316.86" x2="116.44" y2="72.85" xlink:href="#linear-gradient-8"/><linearGradient id="linear-gradient-10" x1="37.06" y1="291.83" x2="2.47" y2="98.55" xlink:href="#linear-gradient-8"/></defs><g id="Layer_2" data-name="Layer 2"><g id="Layer_4" data-name="Layer 4"><g id="Layer_5" data-name="Layer 5"><path class="cls-1" d="M212.67,300.38c-34,0-61.73-25.48-61.73-61.56s27.7-61.39,61.73-61.39c34.2,0,61.39,25.3,61.39,61.39S246.7,300.38,212.67,300.38Zm0-26.68c19.15,0,31.64-13.85,31.64-34.88,0-21.38-12.49-34.89-31.64-34.89-19.49,0-31.81,13.51-31.81,34.89C180.86,259.85,193.18,273.7,212.67,273.7Z"/><path class="cls-2" d="M284,179.14h31.3l17.27,87.38,21.37-87.38h32.15l20.52,87.38L424,179.14h31.46l-31.29,120H388.8l-19.15-79-19.84,79h-35.4Z"/><path class="cls-3" d="M544.92,278h-44.8l-7.19,21.2H462.32l43.44-120h33.86l43.43,120H552.1Zm-22.4-66.52L507.81,255.4H537.4Z"/><path class="cls-4" d="M625.46,179.14v97.47h38.31v22.57H596.22v-120Z"/><path class="cls-5" d="M721.22,300.38c-25.82,0-46-12.83-46.86-37.11h31.12c.86,9.23,6.67,13.68,14.88,13.68,8.55,0,14-4.27,14-11.29,0-22.23-60-10.26-59.69-52.84,0-22.74,18.64-35.39,43.78-35.39,26.17,0,43.78,13,45,35.91H731.82c-.51-7.7-6-12.32-13.85-12.49-7-.17-12.31,3.42-12.31,11,0,20.86,59.34,11.45,59.34,51.64C765,283.62,749.26,300.38,721.22,300.38Z"/><path class="cls-6" d="M812.19,246.17v53H783v-120h29.24v52.67l40-52.67h34.38L840.06,238l48.23,61.22H852.55Z"/><path class="cls-7" d="M902.13,179.14h29.24v120H902.13Z"/></g><polygon class="cls-8" points="108.86 92.26 140.15 91.98 80.08 193.06 50.56 191.75 108.86 92.26"/><polygon class="cls-9" points="81.85 190.05 50.56 189.75 110.63 297.48 140.15 296.08 81.85 190.05"/><text class="cls-10" transform="translate(5.91 71.4)">Project</text><path class="cls-11" d="M34.79,93.07c-4.09-.58-9.27,3.6-12.3,6a47.75,47.75,0,0,0-10.4,11.29,46.2,46.2,0,0,0-7.8,28.76c1.44,18.67,13.9,34.47,20,52.18,7.73,22.51,4.82,47.39-2,70.19C18.17,275.36,12,289.65,0,297.8c13.86,0,27.15-7,36.64-17.12s15.48-23.07,19.2-36.42c4.9-17.55,6-36.52.55-53.9-4-12.53-11.15-23.65-18.27-34.58-7-10.7-17.32-23.11-13.49-36.8"/></g></g></svg>